Patient4_TMGait_0pt4_03_left_42_EMG.mot
version=1
nRows=39
nColumns=33
inDegrees=no
endheader
time	1LAddLong	2LGlutMax	3LGlutMed	4LIliopsoas	5LSemiMemb	6LBicFemLong	7LRecFem	8LVastMed	9LVastLat	10LGasMed	11LTibAnt	12lTibPost	13LPeroneusLong	14LSol	15LExtDigLong	16LFlexDigLong	17RAddLong	18RGlutMax	19RGlutMed	20RIliopsoas	21RSemiMemb	22RBicFemLong	23RRecFem	24RVastMed	25RVastLat	26RGasMed	27RTibAnt	28RTibPost	29RPeroneusLong	30RSol	31RExtDigLong	32RFlexDigLong
57.05	0.000305	0.13382	-0.032196	0.016022	-0.01236	-0.020905	0.020447	-0.00351	0.13016	-0.038452	0.00885	-0.004883	-0.021667	-0.079651	0.008545	0.02121	-0.035095	-0.073395	0.37079	-0.050507	-0.354	0.012512	-0.028992	0.010071	-0.017395	-0.004272	-0.27832	-0.00885	-0.00351	-0.11093	-0.005188	-0.008392
57.051	0.003204	0.11902	-0.036469	0.004425	-0.000916	-0.031433	0.024719	-0.001221	0.13489	-0.038757	0.013733	0.002136	-0.03418	-0.079193	0.019989	0.029144	-0.018768	-0.046234	0.39673	-0.018158	0.33295	0.15243	-0.002289	-0.014496	-0.023651	-0.007782	0.10346	-0.00946	0.02655	-0.076141	-0.001984	-0.007324
57.052	0.007629	0.14771	-0.012054	0.009308	0.021362	-0.041199	0.023651	-0.010376	0.13275	-0.045013	0.007477	-0.005341	-0.036469	-0.078735	0.007324	-0.006561	-0.025787	-0.017548	0.10605	-0.003967	0.28763	0.21683	0.046082	-0.027618	-0.010376	-0.002136	0.13611	-0.006409	-0.097504	0.26443	0.000916	-0.007629
57.053	0.008087	0.14618	0.021362	0.007324	0.0177	-0.022736	0.001068	-0.000153	0.13855	-0.038452	0.010223	-0.006256	-0.034637	-0.089111	0.016022	-0.024872	-0.031891	-0.010986	0.11093	0.022278	0.1593	0.15167	-0.034637	-0.035858	0.003815	-0.001373	0.21439	-0.029449	-0.16022	0.45883	0.003204	-0.002441
57.054	-0.003204	0.12009	-0.016327	0.013275	0.011749	-0.041809	0.000458	-0.003967	0.13931	-0.046082	0.000458	-0.002899	-0.03479	-0.083313	0.020294	-0.021667	-0.016785	-0.087433	-0.014343	0.023346	0.071869	0.10986	-0.04715	-0.015411	-0.015564	0.004272	0.8284	-0.06012	-0.25513	0.085144	0.002289	-0.009003
57.055	0.057068	0.12436	-0.041504	-0.001526	-0.000458	-0.028839	-0.008087	0.006409	0.14236	-0.041656	-0.019836	-0.007172	-0.036774	-0.074921	0.006714	-0.01297	0.010681	-0.032196	-0.19836	-0.029755	0.02121	0.069885	-0.055237	-0.037994	-0.010529	0.014954	-0.26535	0.074921	-0.1651	-0.16083	0.002594	-0.007629
57.056	0.058289	0.13199	-0.080719	0.004272	0.000763	-0.024567	-0.003357	0.005493	0.13702	-0.044403	-0.014191	0.000916	-0.027771	-0.09903	-0.00351	-0.010681	0.002136	-0.086365	-0.10757	0.003815	-0.079346	0.081482	-0.067596	0.01358	-0.004578	0.020447	-0.39734	0.016632	-0.1059	-0.22156	-0.007935	-0.013123
57.057	-0.010529	0.11719	-0.18021	-0.003357	-0.001221	-0.028229	0.010223	0.003204	0.14038	-0.036316	-0.00946	0.006866	-0.045319	-0.10925	-0.045929	-0.006866	-0.002136	-0.10727	-0.1619	0.004425	-0.12314	0.036621	-0.029907	-0.008392	-0.040741	-0.001221	0.14801	0.003967	-0.17929	-0.47302	0	-0.021362
57.058	0.014496	0.11002	-0.13016	0.005798	0.010681	-0.029907	-0.006256	0.00885	0.1358	-0.032501	-0.009308	-0.003815	-0.053711	-0.088501	-0.0383	-0.010376	0.005035	-0.099792	-0.19745	0.022278	0.019989	-0.01358	-0.034027	0.004578	-0.021667	-0.016174	-0.024719	-0.002747	-0.26077	-0.76797	0.001373	-0.025635
57.059	0.003815	0.096588	0.038757	0.010376	0.00824	-0.026245	0.001984	0.006256	0.13275	-0.037384	-0.003815	-0.000763	-0.039978	-0.05188	-0.008087	-0.003204	0.011902	-0.061035	0.013275	0.038757	0.15503	-0.019989	0.027161	-0.074463	-0.020294	-0.014038	-0.081329	0.000305	0.075989	-0.87997	0.000458	-0.011749
57.06	-0.004578	0.083618	0.14542	-0.002899	0.008392	-0.019684	-0.011902	0.003052	0.1268	-0.028076	-0.011749	0.00885	-0.031586	-0.05661	-0.002136	-0.00885	0.020142	-0.031586	-0.20447	-0.022125	0.17166	0.002136	-0.000763	-0.046844	0.010986	-0.009308	0.062561	0.004883	0.36468	-0.48538	0.001373	-0.00824
57.061	-0.000916	0.087738	0.103	-0.005493	0.015106	0.002747	-0.012054	0.003052	0.10742	-0.024414	-0.002594	0.001068	-0.020447	-0.060577	0.000458	-0.00412	0.010986	0.006714	-0.16235	-0.014648	0.12238	-0.027161	-0.037537	-0.067596	-0.003052	-0.011444	0.045776	-0.000305	0.30426	0.094299	0.00473	-0.001526
57.062	0.001678	0.070953	0.057983	0.004272	0.00824	0.003815	-0.019531	0.003357	0.094147	-0.032349	0.002136	-0.000153	-0.05188	-0.075684	-0.013275	-0.005188	0.007172	-0.00412	-0.11078	-0.005188	0.076294	-0.012665	-0.024414	-0.070038	0.01709	-0.01297	-0.023651	-0.009308	0.20218	0.6189	0.002136	-0.001678
57.063	0	0.063629	0.015411	-0.001221	-0.02594	0.026093	0.00473	0.003204	0.074463	-0.032806	-0.006409	0.002289	-0.054626	-0.068207	0.004272	-0.014801	0.029602	0.010071	-0.16937	0.012207	-0.012665	-0.017853	0.10239	-0.076447	-0.007477	-0.014191	-0.073242	-0.058441	0.10925	0.79666	0.000458	-0.005493
57.064	0.001068	0.036316	-0.020599	0	-0.078278	0.000763	-0.015564	0.010071	0.076294	-0.040283	0.003204	0.003204	-0.029602	-0.082703	0.005188	-0.000305	0.041199	0.015106	-0.20416	0.004578	0	-0.035553	0.12421	-0.12863	-0.050354	-0.010681	-0.037537	-0.12192	0.049286	0.56641	0.003204	0.005188
57.065	0.002136	0.006561	-0.033875	0.016327	-0.092163	-0.000305	-0.02243	0.010681	0.079956	-0.04425	-0.000763	0.003967	-0.023193	-0.076599	0.003967	0.002747	0.037689	-0.009003	-0.10864	-0.04303	-0.023499	0.009003	0.1889	-0.096741	-0.066376	-0.00885	0.13245	-0.043182	0.049133	0.2562	-0.000153	-0.008392
57.066	0.002441	0.043945	0.025482	0.003204	-0.02243	-0.016479	-0.008087	0.00824	0.074005	-0.04425	-0.005798	0.011597	-0.013733	-0.11444	0.010986	-0.010986	-0.006256	-0.011139	-0.041046	-0.047913	-0.091095	0.02594	0.063629	0.001221	-0.13275	0.000305	0.07019	0.11383	0.066833	0.043182	0.001831	0.002747
57.067	0.000305	0.009766	0.036163	0.005493	0.04303	-0.011292	-0.010529	0.009766	0.078888	-0.041656	0.000458	-0.002594	-0.023651	-0.079651	0.009613	-0.012207	-0.053558	0.033264	-0.42007	-0.015869	0.082245	0.003662	-0.077972	0.015564	-0.09491	0.001678	-0.13489	0.10696	0.028992	0.039825	0.000916	-0.001373
57.068	-0.000916	0.015717	-0.005035	-0.000916	0.012512	-0.00351	0.005493	0.009308	0.08194	-0.034943	-0.002594	0.002747	-0.033112	-0.095062	0.002594	-0.00473	-0.030975	0.034637	-0.60303	-0.010986	0.11917	0.018921	-0.32761	-0.016632	0.12756	0.012817	-0.073242	0.043488	-0.060577	0.19165	-0.003662	-0.006714
57.069	-0.002899	0.016937	-0.045166	0	0	0.002747	-0.002747	0.009155	0.098419	-0.026703	-0.023499	0.002289	-0.045624	-0.092621	0.001984	-0.00946	-0.030975	0.001831	-0.48126	0.025635	0.037994	0.024872	-0.29526	-0.034943	0.032196	0.033569	0.042114	0.00946	-0.25894	0.009308	-0.000305	-0.010376
57.07	-0.001373	0.016937	-0.07431	0.006561	-0.001221	0.016022	-0.030365	0.007324	0.084229	-0.01709	-0.042419	0.002136	-0.058441	-0.12054	-0.001373	-0.01236	0.006104	-0.000153	-0.10468	0.020905	0.069122	-0.022125	-0.11841	-0.00061	-0.044556	0.029602	0.030518	0.000458	-0.2182	0.006714	0.00061	-0.018005
57.071	-0.002747	0.022278	-0.06424	0.014496	0.018158	0.043793	-0.015717	0.006104	0.074005	-0.001831	-0.04776	0.006104	-0.051117	-0.11108	0.001831	-0.001221	0.024872	0.009613	0.66406	0.040131	0.066376	-0.037231	0.17746	-0.031128	-0.16739	0.001526	0.13382	-0.009918	-0.14847	0.069275	-0.000153	-0.015259
57.072	0.011902	0.034943	-0.078125	0.007935	-0.007324	0.014954	-0.046844	0.013733	0.067139	-0.006256	-0.037079	0.000305	-0.031433	-0.080872	0.014496	-0.003967	0.024261	-0.01709	0.45349	0.071716	-0.011139	0.002899	0.21973	-0.019226	-0.094757	-0.001678	0.1416	0.006561	-0.020294	-0.028229	0.001221	-0.02243
57.073	0.012512	-0.019226	-0.037842	0.01236	-0.007477	-0.027466	-0.033112	0.008087	0.059509	-0.019836	-0.020905	-0.003357	-0.031281	-0.04425	-0.012512	-0.002747	0.00473	-0.095215	-1.0829	0.13916	-0.013733	0.013733	0.32288	-0.06073	-0.11108	-0.022278	0.103	0.00473	0.14099	-0.14984	0.001831	-0.010834
57.074	0.007477	-0.01297	-0.020752	0.014954	0.00885	-0.04425	-0.025024	0.000916	0.055847	-0.011444	0.069122	-0.006714	-0.048065	-0.067139	0.01358	-0.003204	0.001068	-0.081329	-1.2903	0.1268	0.079193	0.040131	0.24887	-0.049286	-0.13733	-0.020447	0.066376	-0.15945	-0.079498	-0.4454	0.003662	-0.014038
57.075	0.01358	0.001831	-0.023651	0.006561	-0.016937	-0.039215	-0.04837	0.010834	0.034943	-0.021667	0.028381	-0.004425	-0.036163	-0.082245	0.012665	-0.009613	-0.012817	0.061951	0.31387	0.070343	0.20355	0.03418	-0.095978	0.006714	0.003662	-0.040131	0.097809	-0.15808	-0.17136	-0.52521	-0.00061	-0.019989
57.076	0.007324	0.018005	-0.041351	0.005341	-0.00824	-0.037537	-0.039063	0.007324	0.047455	-0.028687	-0.002441	0.004425	-0.047607	-0.11383	0.005035	0.006104	-0.019989	0.074768	0.70725	0.011444	0.063477	0.084686	-0.20477	-0.009308	0.12268	-0.027466	-0.11841	0.099182	-0.16815	-0.39459	0.000153	-0.023041
57.077	0.007019	0.031128	-0.056152	0.002899	0.033569	-0.035095	-0.049133	0.010986	0.032654	-0.033569	-0.007629	-0.001373	-0.037537	-0.12756	0.017395	-0.005951	-0.016937	0.025787	-0.055084	-0.01236	-0.080872	0.049286	-0.049438	-0.040741	0.075531	-0.02121	-0.097656	0.11887	-0.16953	0.42099	0.002289	-0.018768
57.078	0.004272	0.015869	-0.048676	0.004425	0.026093	-0.001526	-0.036774	0.008392	0.036163	-0.043793	0.02655	-0.005951	-0.036926	-0.090942	0.024719	0.004425	-0.014801	-0.020447	-0.39398	-0.084381	-0.19287	0.003357	-0.040741	-0.043182	0.10864	0.002136	0.088959	0.06897	-0.1683	0.31387	-0.005341	-0.010376
57.079	-0.003204	-0.014648	0.021515	0.009308	-0.00824	0.042114	-0.048523	0.00946	0.028381	-0.038757	0.043182	-0.006256	-0.066376	-0.083923	0.02243	0.006409	0.006256	-0.07431	-0.39017	-0.13779	-0.090942	-0.071869	-0.14877	-0.014496	0.050812	-0.00946	0.1474	0.027924	-0.14801	0.21469	0.002747	-0.006561
57.08	-0.007477	-0.054016	0.070343	0.002899	-0.047607	0.046997	-0.042572	0.010529	0.024261	-0.039215	0.015259	0.003052	-0.039063	-0.080872	0.03067	0.005188	0.016174	-0.074921	0.15625	-0.16892	0.014954	-0.052338	-0.15213	0.079041	0.09491	-0.010376	0.58014	-0.00061	-0.059662	0.24521	-0.006866	0.004578
57.081	-0.003052	-0.050659	0.02533	0.009766	-0.076141	0.03067	-0.059662	0.00824	0.013275	-0.040436	0.005188	-0.007782	-0.034485	-0.10803	0.040894	0.014343	0.032043	-0.089264	0.27924	-0.11887	0.1088	-0.08606	-0.095215	0.076752	0.11368	-0.007172	0.93781	-0.003204	-0.055084	0.18585	-0.003357	0.001526
57.082	-0.002136	-0.054779	-0.028229	0.01297	-0.068054	-0.02533	-0.058136	0.009308	0.020447	-0.027466	0.002289	-0.012054	-0.028381	-0.093536	0.032043	-0.006409	0.039215	-0.083313	-0.017395	0.001831	0.092773	-0.083008	-0.052948	0.015106	0.10437	-0.014648	0.53558	0.006409	-0.18433	-0.003357	-0.001373	-0.000153
57.083	0.00473	-0.068207	-0.045624	0.008698	0.0177	-0.057526	-0.058289	0.006256	0.020294	-0.033722	0.021362	-0.011139	-0.021667	-0.074463	-0.002594	0.006561	0.027466	-0.089569	-0.4602	0.070953	-0.029297	-0.050964	-0.11887	-0.041809	0.09491	-0.008087	-0.43442	-0.044403	-0.12299	0.024872	0	0.003967
57.084	0.021515	-0.074463	-0.058441	0.012512	0.099182	-0.015869	-0.054169	0.007019	0.017548	-0.02533	0.014648	0.000458	-0.0383	-0.074615	-0.02594	-0.007324	-0.005493	-0.088501	-0.12787	0.079193	-0.19501	0.049286	-0.071411	-0.055389	0.045776	-0.007019	-0.51865	-0.17303	-0.001068	0.12085	-0.000458	-0.010223
57.085	0.009613	-0.097504	-0.048065	0.006866	0.065155	0.021667	-0.059357	-0.001831	0.023499	-0.019226	0.010376	-0.024109	-0.047455	-0.064087	-0.020294	0.009918	-0.018616	-0.096588	-0.067291	-0.027008	-0.068054	0.037231	-0.090027	-0.067749	-0.036163	-0.004272	-0.35461	0.02533	0.16312	-0.009155	0.002136	-0.008698
57.086	0.013885	-0.074158	-0.0737	0.005798	0.005188	0.007172	-0.028992	0.004883	0.026398	-0.028839	0.007629	-0.00885	-0.045624	-0.082245	-0.007019	0.013885	-0.019226	-0.082245	0.14252	-0.079803	0.019073	-0.033112	-0.068054	-0.021973	-0.062103	0.007172	-0.50476	0.1384	0.18677	-0.20065	-0.003815	-0.00946
57.087	0.013275	-0.082855	-0.096283	-0.004578	-0.012665	-0.016022	-0.034943	0	0.020447	-0.054321	0.008087	-0.014648	-0.052338	-0.0737	-0.017853	0.078735	-0.005035	-0.050507	0.01709	-0.032501	0.13977	-0.076752	-0.045013	-0.050964	-0.080261	-0.004578	-0.20508	0.042725	-0.016785	-0.18112	0.001984	-0.011139
57.088	0.00824	-0.098114	-0.11078	-0.015869	0.02243	-0.01709	-0.030212	0.01236	0.003357	-0.048828	0.010681	-0.017395	-0.040131	-0.065308	-0.005798	-0.062256	0.007935	-0.096283	-0.24033	0.044403	0.11246	-0.02121	-0.10956	-0.024567	-0.04837	-0.008545	-0.28458	0.001678	0.024261	-0.103	0.002289	-0.00824
